<svg xmlns="http://www.w3.org/2000/svg" viewBox="0 0 100 100" width="100px" height="100px">
  <!-- Zustand logo - оригинальный дизайн адаптированный -->
  <defs>
    <linearGradient id="zustandGradient" x1="0%" y1="0%" x2="100%" y2="100%">
      <stop offset="0%" style="stop-color:#F97316;stop-opacity:1" />
      <stop offset="100%" style="stop-color:#EA580C;stop-opacity:1" />
    </linearGradient>
  </defs>
  
  <!-- Фон с закругленными углами -->
  <rect width="100" height="100" rx="18" fill="url(#zustandGradient)"/>
  
  <!-- Zustand оригинальный логотип, масштабированный и центрированный -->
  <!-- Оригинальный viewBox 128x128, масштабируем до ~70x70 и центрируем -->
  <g transform="translate(15, 15) scale(0.546875)">
    <svg viewBox="0 0 128 128" width="128" height="128">
      <path fill="#FFFFFF" d="M96.265 1.102a12.7 12.7 0 0 0-4.187.84q-.936.36-2.678 1.438a87 87 0 0 1-2.625 1.56a429 429 0 0 1-3.244 2.906a19.4 19.4 0 0 0-2.74 3.499a.324.255 57 0 0-.021.238q.066.222-.116.267a.14.45 83 0 0-.232.104a3.93 3.93 0 0 0-1.055 1.896q-.104.42-.342.844a2.9 2.9 0 0 0-.336.818q-.105.534-.207 1.067a.83.83 0 0 1-.453.539a60.9 60.9 0 0 0-19.43-2.285a4 4 0 0 0-.855.127q-.42.112-.836.246a57.5 57.5 0 0 0-20.091 4.732a2.35 2.35 0 0 1-1.108-.982l-.384-.653a25.2 25.2 0 0 0-3.565-4.066q-.671-.844-2.223-1.79q-3.64-2.22-7.464-2.337l-.586.027a2.3 2.3 0 0 1-.78-.1a3.5 3.5 0 0 0-2.033.565l-.814.526q-3.186 1.84-5.03 4.945q-2.097 3.54-3.04 7.728q-.582 2.572-.454 5.702q.113.28.165.576q.042.232-.053.578a3.8 3.8 0 0 0-.133.97q-.006.36.225.926q.47 1.16.332 2.434q.762 3.34 1.203 4.951q.118.432.011.736l-.289.602a10.1 10.1 0 0 0-1.82 2.236q-.878 1.464-.926 1.541q-.534.873-.94 1.824a48.9 48.9 0 0 0-6.454 18.56a5.85 5.85 0 0 0-.352 2.393a29 29 0 0 0-.29 5.092l.099 3.063q.031 2.783.191 3.818a55.7 55.7 0 0 0 2.29 9.348l.32.55a54.4 54.4 0 0 0 3.56 8.412q1.089 2.066 1.672 2.81a46 46 0 0 0 3.115 4.485l.764 1.026q.676.903 1.539 1.646q.907 1.102 1.807 2.207a73 73 0 0 1 2.982 2.637q1.454 1.356 2.63 2.146a55 55 0 0 0 5.057 3.008a77 77 0 0 0 3.844 2.578q1.218.883 2.846 1.504q3.332 1.275 6.168 2.057q1.05.288 2.82 1.144a.469.487 56.3 0 0 .258.047a8 8 0 0 1 1.672.012q1.311.332 2.625.654q1.093.265 8.545.762a30 30 0 0 0 4.148-.01a52 52 0 0 0 8.16-.217q1.245-.131 3.047-.547a100 100 0 0 1 3.039-.642a28 28 0 0 1 3.344-1.002a183 183 0 0 1 5.234-2.141q.736-.29 1.717-.88q.95-.575 1.761-.843q1.924-.631 3.3-1.675q.408-.31.97-.487a5.1 5.1 0 0 0 1.615-.85a29 29 0 0 0 3.516-2.156a65 65 0 0 0 3.265-2.51a40.3 40.3 0 0 0 5.211-5.081a7.6 7.6 0 0 1 1.637-1.438a32 32 0 0 0 2.193-2.824a54 54 0 0 0 8.026-13.512q.302-.54.564-1.097q.171-.362.324-1.172a4 4 0 0 1 .319-.992q.174-.37.265-.858a2.8 2.8 0 0 1 .313-.861q.26-.455.318-.771q.078-.422.147-.842a.383.289 40.3 0 0-.053-.24q-.252-.42.21-.659a1.96 1.96 0 0 0 .362-1.256a.485.428 60.6 0 1 .055-.248a3.86 3.86 0 0 0 .47-1.824q.484-2.703.692-5.435q.003-.01.164-1.16q.09-.645-.002-1.348a14 14 0 0 1-.05-3.16a3.54 3.54 0 0 1-.03-1.612a.439.396 42 0 0-.027-.25q-.09-.219-.123-.453q-.027-.18.076-.576q.093-.353-.014-.603a3.8 3.8 0 0 1-.285-1.328a.24.24 0 0 1 .22-.247a6.2 6.2 0 0 0 3.06-1.078a21 21 0 0 0 1.857-1.427a3.3 3.3 0 0 0 1.568-1.707q.378-.51.715-1.04a.378.303 61.1 0 0 .043-.246q-.064-.381.22-.513a.24.466 79.6 0 0 .2-.155a8.7 8.7 0 0 0 1.306-5.07a.6.6 0 0 1 .053-.25a.63.63 0 0 0 .025-.478l-.123-.364a9.6 9.6 0 0 0-1.205-3.015a.76.76 0 0 0-.261-.264q-.565-.343-.653-.652a.597.6 6.8 0 0-.277-.352a16 16 0 0 1-2.281-1.582q-.384-.32-1.924-.683q-.696.012-1.389-.053q-1.017-.093-1.375-.068a6.6 6.6 0 0 0-2.804.84a25 25 0 0 0-2.352.849a.15.148 64.5 0 1-.187-.066A59.3 59.3 0 0 0 102.937 31.9q-.346-.346-.156-.815l1.67-4.115q1.758-4.596 2.275-9.775q.503-5.044-1.22-9.617a3.6 3.6 0 0 0-.319-.56q-1.774-3.454-5.113-5.202h-.002a6.1 6.1 0 0 0-2.355-.677a13 13 0 0 0-1.452-.038Z"/>
    </svg>
  </g>
</svg>

